<?xml version="1.0" encoding="utf-8"?>
<svg version="1.1" xmlns:xlink="http://www.w3.org/1999/xlink" width="80px" height="37px" xmlns="http://www.w3.org/2000/svg">
  <g transform="matrix(1 0 0 1 -410 -372 )">
    <path d="M 411 375  A 2 2 0 0 1 413 373 L 487 373  A 2 2 0 0 1 489 375 L 489 406  A 2 2 0 0 1 487 408 L 413 408  A 2 2 0 0 1 411 406 L 411 375  Z " fill-rule="nonzero" fill="#f0f7ff" stroke="none" />
    <path d="M 410.5 375  A 2.5 2.5 0 0 1 413 372.5 L 487 372.5  A 2.5 2.5 0 0 1 489.5 375 L 489.5 406  A 2.5 2.5 0 0 1 487 408.5 L 413 408.5  A 2.5 2.5 0 0 1 410.5 406 L 410.5 375  Z " stroke-width="1" stroke="#7abbff" fill="none" stroke-opacity="0.996078431372549" />
  </g>
</svg>