<?xml version="1.0" encoding="utf-8"?>
<svg version="1.1" xmlns:xlink="http://www.w3.org/1999/xlink" width="80px" height="35px" xmlns="http://www.w3.org/2000/svg">
  <g transform="matrix(1 0 0 1 -410 -379 )">
    <path d="M 411 382  A 2 2 0 0 1 413 380 L 487 380  A 2 2 0 0 1 489 382 L 489 411  A 2 2 0 0 1 487 413 L 413 413  A 2 2 0 0 1 411 411 L 411 382  Z " fill-rule="nonzero" fill="#f0f7ff" stroke="none" />
    <path d="M 410.5 382  A 2.5 2.5 0 0 1 413 379.5 L 487 379.5  A 2.5 2.5 0 0 1 489.5 382 L 489.5 411  A 2.5 2.5 0 0 1 487 413.5 L 413 413.5  A 2.5 2.5 0 0 1 410.5 411 L 410.5 382  Z " stroke-width="1" stroke="#7abbff" fill="none" stroke-opacity="0.996078431372549" />
  </g>
</svg>