<?xml version="1.0" encoding="utf-8"?>
<svg version="1.1" xmlns:xlink="http://www.w3.org/1999/xlink" width="31px" height="22px" xmlns="http://www.w3.org/2000/svg">
  <g transform="matrix(1 0 0 1 -1300 -97 )">
    <path d="M 14.457399103139014 16.5  L 15.4304932735426 16.5  L 17.446188340807172 14.6875  L 14.804932735426009 12.312499999999998  L 12.789237668161435 14.125  L 12.789237668161435 15.000000000000002  L 14.457399103139014 15.000000000000002  L 14.457399103139014 16.5  Z M 23.058856502242154 5.765625  C 23.255792227204786 5.588541666666664  23.26158445440957 5.416666666666664  23.076233183856502 5.25  C 22.89088191330344 5.083333333333331  22.699738415545593 5.088541666666664  22.502802690582957 5.265625000000001  L 16.420964125560538 10.734375  C 16.22402840059791 10.911458333333334  16.218236173393123 11.08333333333333  16.403587443946186 11.25  C 16.588938714499253 11.416666666666666  16.780082212257103 11.41145833333333  16.97701793721973 11.234375000000002  L 23.058856502242154 5.765625  Z M 24.11883408071749 14.078125  C 24.350523168908822 14.16145833333333  24.466367713004484 14.312500000000002  24.466367713004484 14.53125  L 24.466367713004484 17.5  C 24.466367713004484 18.739583333333332  23.976924514200302 19.799479166666668  22.99803811659193 20.6796875  C 22.01915171898356 21.559895833333332  20.840433482810166 22  19.46188340807175 22  L 5.004484304932736 22  C 3.62593423019432 22  2.447215994020927 21.559895833333332  1.468329596412556 20.6796875  C 0.4894431988041853 19.799479166666668  0 18.739583333333332  0 17.5  L 0 4.500000000000001  C 0 3.2604166666666643  0.4894431988041853 2.200520833333332  1.468329596412556 1.3203125000000009  C 2.447215994020927 0.4401041666666645  3.62593423019432 0  5.004484304932736 0  L 19.46188340807175 0  C 20.19170403587444 0  20.86939461883408 0.13020833333333215  21.494955156950674 0.3906249999999989  C 21.66872197309417 0.4635416666666652  21.77298206278027 0.5833333333333328  21.807735426008968 0.7499999999999993  C 21.842488789237667 0.9270833333333328  21.790358744394617 1.078124999999999  21.65134529147982 1.203125  L 20.79988789237668 1.9687499999999998  C 20.63770553064275 2.114583333333332  20.452354260089688 2.15625  20.24383408071749 2.093750000000001  C 19.97739162929746 2.031249999999999  19.716741405082214 2.000000000000001  19.46188340807175 2  L 5.004484304932736 2  C 4.239910313901346 2.000000000000001  3.5853886397608377 2.2447916666666643  3.040919282511211 2.7343749999999996  C 2.496449925261585 3.223958333333332  2.224215246636771 3.812500000000001  2.224215246636771 4.500000000000001  L 2.224215246636771 17.5  C 2.224215246636771 18.1875  2.496449925261585 18.776041666666664  3.040919282511211 19.265625  C 3.5853886397608377 19.755208333333332  4.239910313901346 20  5.004484304932736 20  L 19.46188340807175 20  C 20.22645739910314 20  20.880979073243648 19.755208333333332  21.425448430493276 19.265625  C 21.9699177877429 18.776041666666664  22.242152466367713 18.1875  22.242152466367713 17.5  L 22.242152466367713 15.531250000000002  C 22.242152466367713 15.395833333333332  22.294282511210763 15.28125  22.39854260089686 15.187500000000002  L 23.510650224215247 14.1875  C 23.684417040358742 14.031249999999998  23.88714499252616 13.994791666666666  24.11883408071749 14.078125  Z M 11.121076233183857 13.5  L 22.798206278026907 3  L 27.80269058295964 7.500000000000001  L 16.12556053811659 18  L 11.121076233183857 18  L 11.121076233183857 13.5  Z M 31 3.999999999999999  C 31 4.416666666666665  30.83781763826607 4.770833333333332  30.513452914798204 5.0625  L 28.91479820627803 6.499999999999999  L 23.91031390134529 2.000000000000001  L 25.508968609865473 0.5624999999999989  C 25.833333333333336 0.27083333333333126  26.227204783258596 0.1250000000000011  26.690582959641258 0.1250000000000011  C 27.153961136023916 0.1250000000000011  27.54783258594918 0.27083333333333126  27.872197309417043 0.5624999999999989  L 30.513452914798204 2.9375000000000004  C 30.83781763826607 3.2291666666666634  31 3.5833333333333326  31 3.999999999999999  Z " fill-rule="nonzero" fill="#409eff" stroke="none" transform="matrix(1 0 0 1 1300 97 )" />
  </g>
</svg>