<?xml version="1.0" encoding="utf-8"?>
<svg version="1.1" xmlns:xlink="http://www.w3.org/1999/xlink" width="10px" height="5px" xmlns="http://www.w3.org/2000/svg">
  <g transform="matrix(1 0 0 1 -40 -576 )">
    <path d="M 45 577  C 47.24 577  49 577.66  49 578.5  C 49 579.34  47.24 580  45 580  C 42.76 580  41 579.34  41 578.5  C 41 577.66  42.76 577  45 577  Z " fill-rule="nonzero" fill="#f9f9f9" stroke="none" />
    <path d="M 45 577  C 47.24 577  49 577.66  49 578.5  C 49 579.34  47.24 580  45 580  C 42.76 580  41 579.34  41 578.5  C 41 577.66  42.76 577  45 577  Z " stroke-width="2" stroke="#409eff" fill="none" />
  </g>
</svg>