<?xml version="1.0" encoding="utf-8"?>
<svg version="1.1" xmlns:xlink="http://www.w3.org/1999/xlink" width="10px" height="5px" xmlns="http://www.w3.org/2000/svg">
  <g transform="matrix(1 0 0 1 -45 -274 )">
    <path d="M 50 275  C 52.24 275  54 275.66  54 276.5  C 54 277.34  52.24 278  50 278  C 47.76 278  46 277.34  46 276.5  C 46 275.66  47.76 275  50 275  Z " fill-rule="nonzero" fill="#f9f9f9" stroke="none" />
    <path d="M 50 275  C 52.24 275  54 275.66  54 276.5  C 54 277.34  52.24 278  50 278  C 47.76 278  46 277.34  46 276.5  C 46 275.66  47.76 275  50 275  Z " stroke-width="2" stroke="#409eff" fill="none" />
  </g>
</svg>