<?xml version="1.0" encoding="utf-8"?>
<svg version="1.1" xmlns:xlink="http://www.w3.org/1999/xlink" width="10px" height="5px" xmlns="http://www.w3.org/2000/svg">
  <g transform="matrix(1 0 0 1 -40 -123 )">
    <path d="M 45 124  C 47.24 124  49 124.66  49 125.5  C 49 126.34  47.24 127  45 127  C 42.76 127  41 126.34  41 125.5  C 41 124.66  42.76 124  45 124  Z " fill-rule="nonzero" fill="#f9f9f9" stroke="none" />
    <path d="M 45 124  C 47.24 124  49 124.66  49 125.5  C 49 126.34  47.24 127  45 127  C 42.76 127  41 126.34  41 125.5  C 41 124.66  42.76 124  45 124  Z " stroke-width="2" stroke="#409eff" fill="none" />
  </g>
</svg>