<?xml version="1.0" encoding="utf-8"?>
<svg version="1.1" xmlns:xlink="http://www.w3.org/1999/xlink" width="110px" height="35px" xmlns="http://www.w3.org/2000/svg">
  <g transform="matrix(1 0 0 1 -1441 -93 )">
    <path d="M 1442 98  A 4 4 0 0 1 1446 94 L 1546 94  A 4 4 0 0 1 1550 98 L 1550 123  A 4 4 0 0 1 1546 127 L 1446 127  A 4 4 0 0 1 1442 123 L 1442 98  Z " fill-rule="nonzero" fill="#409eff" stroke="none" fill-opacity="0.0784313725490196" />
    <path d="M 1441.5 98  A 4.5 4.5 0 0 1 1446 93.5 L 1546 93.5  A 4.5 4.5 0 0 1 1550.5 98 L 1550.5 123  A 4.5 4.5 0 0 1 1546 127.5 L 1446 127.5  A 4.5 4.5 0 0 1 1441.5 123 L 1441.5 98  Z " stroke-width="1" stroke="#7abbff" fill="none" stroke-opacity="0.996078431372549" />
  </g>
</svg>