<?xml version="1.0" encoding="utf-8"?>
<svg version="1.1" xmlns:xlink="http://www.w3.org/1999/xlink" width="30px" height="30px" xmlns="http://www.w3.org/2000/svg">
  <g transform="matrix(1 0 0 1 -267 -238 )">
    <path d="M 282 239  C 289.84 239  296 245.16  296 253  C 296 260.84  289.84 267  282 267  C 274.16 267  268 260.84  268 253  C 268 245.16  274.16 239  282 239  Z " fill-rule="nonzero" fill="#ffffff" stroke="none" />
    <path d="M 282 239  C 289.84 239  296 245.16  296 253  C 296 260.84  289.84 267  282 267  C 274.16 267  268 260.84  268 253  C 268 245.16  274.16 239  282 239  Z " stroke-width="2" stroke="#0079fe" fill="none" />
  </g>
</svg>