<?xml version="1.0" encoding="utf-8"?>
<svg version="1.1" xmlns:xlink="http://www.w3.org/1999/xlink" width="30px" height="30px" xmlns="http://www.w3.org/2000/svg">
  <g transform="matrix(1 0 0 1 -120 -720 )">
    <path d="M 135 721  C 142.84 721  149 727.16  149 735  C 149 742.84  142.84 749  135 749  C 127.16 749  121 742.84  121 735  C 121 727.16  127.16 721  135 721  Z " fill-rule="nonzero" fill="#ffffff" stroke="none" />
    <path d="M 135 721  C 142.84 721  149 727.16  149 735  C 149 742.84  142.84 749  135 749  C 127.16 749  121 742.84  121 735  C 121 727.16  127.16 721  135 721  Z " stroke-width="2" stroke="#e4e4e4" fill="none" />
  </g>
</svg>