<?xml version="1.0" encoding="utf-8"?>
<svg version="1.1" xmlns:xlink="http://www.w3.org/1999/xlink" width="7px" height="11px" xmlns="http://www.w3.org/2000/svg">
  <g transform="matrix(1 0 0 1 -295 -227 )">
    <path d="M 6.87972508591065 5.246492985971929  C 6.959908361970179 5.3199732798931105  7 5.404475617902426  7 5.5  C 7 5.595524382097574  6.959908361970179 5.6800267201068895  6.87972508591065 5.75350701402807  L 1.274914089347135 10.88977955911829  C 1.1947308132874923 10.963259853039471  1.1025200458190056 11  0.9982817869415612 11  C 0.8940435280641168 11  0.8018327605956301 10.963259853039471  0.7216494845361012 10.88977955911829  L 0.1202749140893502 10.338677354709365  C 0.0400916380298213 10.265197060788182  0 10.180694722778867  0 10.085170340681419  C 0 9.989645958583845  0.0400916380298213 9.90514362057453  0.1202749140893502 9.831663326653347  L 4.847079037800654 5.5  L 0.1202749140893502 1.1683366733466527  C 0.0400916380298213 1.094856379425471  0 1.0103540414161558  0 0.9148296593185818  C 0 0.8193052772211331  0.0400916380298213 0.7348029392118178  0.1202749140893502 0.661322645290636  L 0.7216494845361012 0.11022044088171015  C 0.8018327605956301 0.036740146960528366  0.8940435280641168 0  0.9982817869415612 0  C 1.1025200458190056 0  1.1947308132874923 0.036740146960528366  1.274914089347135 0.11022044088171015  L 6.87972508591065 5.246492985971929  Z " fill-rule="nonzero" fill="#cccccc" stroke="none" transform="matrix(1 0 0 1 295 227 )" />
  </g>
</svg>