<?xml version="1.0" encoding="utf-8"?>
<svg version="1.1" xmlns:xlink="http://www.w3.org/1999/xlink" width="50px" height="54px" xmlns="http://www.w3.org/2000/svg">
  <g transform="matrix(1 0 0 1 -362 -188 )">
    <path d="M 50 27.000154365497405  C 50.00000005587613 12.088319982667377  38.80716834426712 0  25.00008576978493 0  C 11.192888816964242 0  0 12.088319982667377  0 27.000154365497405  C 0 41.91168001733237  11.192888872840253 54  25.00008576978493 54  C 38.80716834426712 54  50 41.91168001733237  50 27.000154365497405  Z M 45.83341437227666 27.0001544258435  C 45.83341437227666 39.42644638041597  36.50602603198692 49.50002578792916  25.00008576978493 49.50002578792916  C 13.494088346351699 49.50002578792916  4.1667000060619594 39.42644638041597  4.1667000060619594 27.0001544258435  C 4.1667000060619594 14.573553679930125  13.494088346351699 4.499974332763277  25.00008576978493 4.499974332763277  C 36.50602603198692 4.499974332763277  45.83341437227666 14.573553740276218  45.83341437227666 27.0001544258435  Z M 38.973157072398614 25.443988664987145  L 28.556464190537067 14.193960352576523  C 27.742759200771243 13.315097229499816  26.424112344860458 13.315097229499816  25.610521733433256 14.193960352576523  C 24.796988283237294 15.072329421577  24.796988283237294 16.496776817301686  25.610521733433256 17.375269414907745  L 32.471007734112405 25  L 12.500157235293019 25  C 11.349042907765892 24.78447082738163  10.416750043092788 25.791408855358327  10.416750043092788 27.03448886082814  C 10.416750043092788 28.277692334557443  11.349042907765892 29.28450689427465  12.500157235293019 29  L 32.471007734112405 29  L 25.610521733433256 36.69383171466219  C 25.20426959910662 37.13270748799432  25.00020014812343 37.70867406474628  25.00020014812343 38.284517112892416  C 25.00020014812343 38.86066895237997  25.203297634671184 39.43663552913168  25.610521733433256 39.87532603972848  C 26.424112344860458 40.75388037146428  27.74281641787862 40.75388037146428  28.556464190537067 39.87532603972848  L 38.973157072398614 28.62529772731811  C 39.78669052259457 27.746743395582307  39.78669052259457 26.322357733987367  38.973157072398614 25.443988664987145  Z " fill-rule="nonzero" fill="#cccccc" stroke="none" transform="matrix(1 0 0 1 362 188 )" />
  </g>
</svg>