<?xml version="1.0" encoding="utf-8"?>
<svg version="1.1" xmlns:xlink="http://www.w3.org/1999/xlink" width="15px" height="15px" xmlns="http://www.w3.org/2000/svg">
  <g transform="matrix(1 0 0 1 -73 -30 )">
    <path d="M 80.5 32  C 83.58 32  86 34.42  86 37.5  C 86 40.58  83.58 43  80.5 43  C 77.42 43  75 40.58  75 37.5  C 75 34.42  77.42 32  80.5 32  Z " fill-rule="nonzero" fill="#fcfcfc" stroke="none" />
    <path d="M 80.5 31.5  C 83.86 31.5  86.5 34.14  86.5 37.5  C 86.5 40.86  83.86 43.5  80.5 43.5  C 77.14 43.5  74.5 40.86  74.5 37.5  C 74.5 34.14  77.14 31.5  80.5 31.5  Z " stroke-width="3" stroke="#409eff" fill="none" />
  </g>
</svg>