<?xml version="1.0" encoding="utf-8"?>
<svg version="1.1" xmlns:xlink="http://www.w3.org/1999/xlink" width="56px" height="25px" xmlns="http://www.w3.org/2000/svg">
  <g transform="matrix(1 0 0 1 -1344 -35 )">
    <path d="M 1344.5 40  A 4.5 4.5 0 0 1 1349 35.5 L 1395 35.5  A 4.5 4.5 0 0 1 1399.5 40 L 1399.5 55  A 4.5 4.5 0 0 1 1395 59.5 L 1349 59.5  A 4.5 4.5 0 0 1 1344.5 55 L 1344.5 40  Z " fill-rule="nonzero" fill="#f56c6c" stroke="none" />
    <path d="M 1344.5 40  A 4.5 4.5 0 0 1 1349 35.5 L 1395 35.5  A 4.5 4.5 0 0 1 1399.5 40 L 1399.5 55  A 4.5 4.5 0 0 1 1395 59.5 L 1349 59.5  A 4.5 4.5 0 0 1 1344.5 55 L 1344.5 40  Z " stroke-width="1" stroke="#f56c6c" fill="none" />
  </g>
</svg>