<?xml version="1.0" encoding="utf-8"?>
<svg version="1.1" xmlns:xlink="http://www.w3.org/1999/xlink" width="100px" height="35px" xmlns="http://www.w3.org/2000/svg">
  <g transform="matrix(1 0 0 1 -403 -337 )">
    <path d="M 404 342  A 4 4 0 0 1 408 338 L 498 338  A 4 4 0 0 1 502 342 L 502 367  A 4 4 0 0 1 498 371 L 408 371  A 4 4 0 0 1 404 367 L 404 342  Z " fill-rule="nonzero" fill="#f0f7ff" stroke="none" />
    <path d="M 403.5 342  A 4.5 4.5 0 0 1 408 337.5 L 498 337.5  A 4.5 4.5 0 0 1 502.5 342 L 502.5 367  A 4.5 4.5 0 0 1 498 371.5 L 408 371.5  A 4.5 4.5 0 0 1 403.5 367 L 403.5 342  Z " stroke-width="1" stroke="#7abbff" fill="none" stroke-opacity="0.996078431372549" />
  </g>
</svg>