<?xml version="1.0" encoding="utf-8"?>
<svg version="1.1" xmlns:xlink="http://www.w3.org/1999/xlink" width="120px" height="40px" xmlns="http://www.w3.org/2000/svg">
  <g transform="matrix(1 0 0 1 -130 -762 )">
    <path d="M 130.5 767  A 4.5 4.5 0 0 1 135 762.5 L 245 762.5  A 4.5 4.5 0 0 1 249.5 767 L 249.5 797  A 4.5 4.5 0 0 1 245 801.5 L 135 801.5  A 4.5 4.5 0 0 1 130.5 797 L 130.5 767  Z " fill-rule="nonzero" fill="#f0f7ff" stroke="none" />
    <path d="M 130.5 767  A 4.5 4.5 0 0 1 135 762.5 L 245 762.5  A 4.5 4.5 0 0 1 249.5 767 L 249.5 797  A 4.5 4.5 0 0 1 245 801.5 L 135 801.5  A 4.5 4.5 0 0 1 130.5 797 L 130.5 767  Z " stroke-width="1" stroke="#409eff" fill="none" />
  </g>
</svg>