<?xml version="1.0" encoding="utf-8"?>
<svg version="1.1" xmlns:xlink="http://www.w3.org/1999/xlink" width="56px" height="24px" xmlns="http://www.w3.org/2000/svg">
  <g transform="matrix(1 0 0 1 -1276 -36 )">
    <path d="M 1276.5 41  A 4.5 4.5 0 0 1 1281 36.5 L 1327 36.5  A 4.5 4.5 0 0 1 1331.5 41 L 1331.5 55  A 4.5 4.5 0 0 1 1327 59.5 L 1281 59.5  A 4.5 4.5 0 0 1 1276.5 55 L 1276.5 41  Z " fill-rule="nonzero" fill="#19be6b" stroke="none" />
    <path d="M 1276.5 41  A 4.5 4.5 0 0 1 1281 36.5 L 1327 36.5  A 4.5 4.5 0 0 1 1331.5 41 L 1331.5 55  A 4.5 4.5 0 0 1 1327 59.5 L 1281 59.5  A 4.5 4.5 0 0 1 1276.5 55 L 1276.5 41  Z " stroke-width="1" stroke="#19be6b" fill="none" />
  </g>
</svg>