<?xml version="1.0" encoding="utf-8"?>
<svg version="1.1" xmlns:xlink="http://www.w3.org/1999/xlink" width="84px" height="35px" xmlns="http://www.w3.org/2000/svg">
  <g transform="matrix(1 0 0 1 -1405 -23 )">
    <path d="M 1405.5 28  A 4.5 4.5 0 0 1 1410 23.5 L 1484 23.5  A 4.5 4.5 0 0 1 1488.5 28 L 1488.5 53  A 4.5 4.5 0 0 1 1484 57.5 L 1410 57.5  A 4.5 4.5 0 0 1 1405.5 53 L 1405.5 28  Z " fill-rule="nonzero" fill="#ffffff" stroke="none" />
    <path d="M 1405.5 28  A 4.5 4.5 0 0 1 1410 23.5 L 1484 23.5  A 4.5 4.5 0 0 1 1488.5 28 L 1488.5 53  A 4.5 4.5 0 0 1 1484 57.5 L 1410 57.5  A 4.5 4.5 0 0 1 1405.5 53 L 1405.5 28  Z " stroke-width="1" stroke="#e4e4e4" fill="none" />
  </g>
</svg>