<?xml version="1.0" encoding="utf-8"?>
<svg version="1.1" xmlns:xlink="http://www.w3.org/1999/xlink" width="560px" height="200px" xmlns="http://www.w3.org/2000/svg">
  <g transform="matrix(1 0 0 1 -20 -70 )">
    <path d="M 21 75  A 4 4 0 0 1 25 71 L 575 71  A 4 4 0 0 1 579 75 L 579 265  A 4 4 0 0 1 575 269 L 25 269  A 4 4 0 0 1 21 265 L 21 75  Z " fill-rule="nonzero" fill="#f9f9f9" stroke="none" />
    <path d="M 20.5 75  A 4.5 4.5 0 0 1 25 70.5 L 575 70.5  A 4.5 4.5 0 0 1 579.5 75 L 579.5 265  A 4.5 4.5 0 0 1 575 269.5 L 25 269.5  A 4.5 4.5 0 0 1 20.5 265 L 20.5 75  Z " stroke-width="1" stroke-dasharray="9,4" stroke="#e4e4e4" fill="none" stroke-dashoffset="0.5" />
  </g>
</svg>