<?xml version="1.0" encoding="utf-8"?>
<svg version="1.1" xmlns:xlink="http://www.w3.org/1999/xlink" width="270px" height="50px" viewBox="50 360  270 50" xmlns="http://www.w3.org/2000/svg">
  <path d="M 50.5 365  A 4.5 4.5 0 0 1 55 360.5 L 315 360.5  A 4.5 4.5 0 0 1 319.5 365 L 319.5 405  A 4.5 4.5 0 0 1 315 409.5 L 55 409.5  A 4.5 4.5 0 0 1 50.5 405 L 50.5 365  Z " fill-rule="nonzero" fill="#ffffff" stroke="none" />
  <path d="M 50.5 365  A 4.5 4.5 0 0 1 55 360.5 L 315 360.5  A 4.5 4.5 0 0 1 319.5 365 L 319.5 405  A 4.5 4.5 0 0 1 315 409.5 L 55 409.5  A 4.5 4.5 0 0 1 50.5 405 L 50.5 365  Z " stroke-width="1" stroke="#ffffff" fill="none" />
</svg>