<?xml version="1.0" encoding="utf-8"?>
<svg version="1.1" xmlns:xlink="http://www.w3.org/1999/xlink" width="160px" height="67px" xmlns="http://www.w3.org/2000/svg">
  <g transform="matrix(1 0 0 1 -308 -356 )">
    <path d="M 309 407.4  C 309 407.4  309 361  309 361  C 309 358.79086100067684  310.79086100067684 357  313 357  C 313 357  463 357  463 357  C 465.20913899932316 357  467 358.79086100067684  467 361  C 467 361  467 407.4  467 407.4  C 467 409.60913899932314  465.20913899932316 411.4  463 411.4  C 463 411.4  398.44629185337726 411.4  398.44629185337726 411.4  C 398.44629185337726 411.4  388.8571428571429 420.87955872199177  388.8571428571429 420.87955872199177  C 388.8571428571429 420.87955872199177  379.2679938609084 411.4  379.2679938609084 411.4  C 379.2679938609084 411.4  313 411.4  313 411.4  C 310.79086100067684 411.4  309 409.60913899932314  309 407.4  Z " fill-rule="nonzero" fill="#333333" stroke="none" fill-opacity="0.8" />
  </g>
</svg>