<?xml version="1.0" encoding="utf-8"?>
<svg version="1.1" xmlns:xlink="http://www.w3.org/1999/xlink" width="10px" height="10px" xmlns="http://www.w3.org/2000/svg">
  <g transform="matrix(1 0 0 1 -40 -110 )">
    <path d="M 45 111  C 47.24 111  49 112.76  49 115  C 49 117.24  47.24 119  45 119  C 42.76 119  41 117.24  41 115  C 41 112.76  42.76 111  45 111  Z " fill-rule="nonzero" fill="#f9f9f9" stroke="none" />
    <path d="M 45 111  C 47.24 111  49 112.76  49 115  C 49 117.24  47.24 119  45 119  C 42.76 119  41 117.24  41 115  C 41 112.76  42.76 111  45 111  Z " stroke-width="2" stroke="#409eff" fill="none" />
  </g>
</svg>