<?xml version="1.0" encoding="utf-8"?>
<svg version="1.1" xmlns:xlink="http://www.w3.org/1999/xlink" width="80px" height="24px" xmlns="http://www.w3.org/2000/svg">
  <g transform="matrix(1 0 0 1 -410 -245 )">
    <path d="M 410.5 248  A 2.5 2.5 0 0 1 413 245.5 L 487 245.5  A 2.5 2.5 0 0 1 489.5 248 L 489.5 266  A 2.5 2.5 0 0 1 487 268.5 L 413 268.5  A 2.5 2.5 0 0 1 410.5 266 L 410.5 248  Z " fill-rule="nonzero" fill="#f9f9f9" stroke="none" />
    <path d="M 410.5 248  A 2.5 2.5 0 0 1 413 245.5 L 487 245.5  A 2.5 2.5 0 0 1 489.5 248 L 489.5 266  A 2.5 2.5 0 0 1 487 268.5 L 413 268.5  A 2.5 2.5 0 0 1 410.5 266 L 410.5 248  Z " stroke-width="1" stroke="#e4e4e4" fill="none" />
  </g>
</svg>