<?xml version="1.0" encoding="utf-8"?>
<svg version="1.1" xmlns:xlink="http://www.w3.org/1999/xlink" width="80px" height="19px" xmlns="http://www.w3.org/2000/svg">
  <g transform="matrix(1 0 0 1 -410 -192 )">
    <path d="M 411 195  A 2 2 0 0 1 413 193 L 487 193  A 2 2 0 0 1 489 195 L 489 208  A 2 2 0 0 1 487 210 L 413 210  A 2 2 0 0 1 411 208 L 411 195  Z " fill-rule="nonzero" fill="#f0f7ff" stroke="none" />
    <path d="M 410.5 195  A 2.5 2.5 0 0 1 413 192.5 L 487 192.5  A 2.5 2.5 0 0 1 489.5 195 L 489.5 208  A 2.5 2.5 0 0 1 487 210.5 L 413 210.5  A 2.5 2.5 0 0 1 410.5 208 L 410.5 195  Z " stroke-width="1" stroke="#7abbff" fill="none" stroke-opacity="0.996078431372549" />
  </g>
</svg>