<?xml version="1.0" encoding="utf-8"?>
<svg version="1.1" xmlns:xlink="http://www.w3.org/1999/xlink" width="160px" height="40px" xmlns="http://www.w3.org/2000/svg">
  <g transform="matrix(1 0 0 1 -155 -259 )">
    <path d="M 156 262  A 2 2 0 0 1 158 260 L 312 260  A 2 2 0 0 1 314 262 L 314 296  A 2 2 0 0 1 312 298 L 158 298  A 2 2 0 0 1 156 296 L 156 262  Z " fill-rule="nonzero" fill="#f0f7ff" stroke="none" />
    <path d="M 155.5 262  A 2.5 2.5 0 0 1 158 259.5 L 312 259.5  A 2.5 2.5 0 0 1 314.5 262 L 314.5 296  A 2.5 2.5 0 0 1 312 298.5 L 158 298.5  A 2.5 2.5 0 0 1 155.5 296 L 155.5 262  Z " stroke-width="1" stroke="#7abbff" fill="none" stroke-opacity="0.996078431372549" />
  </g>
</svg>