<?xml version="1.0" encoding="utf-8"?>
<svg version="1.1" xmlns:xlink="http://www.w3.org/1999/xlink" width="140px" height="40px" xmlns="http://www.w3.org/2000/svg">
  <g transform="matrix(1 0 0 1 -50 -389 )">
    <path d="M 50.5 392  A 2.5 2.5 0 0 1 53 389.5 L 187 389.5  A 2.5 2.5 0 0 1 189.5 392 L 189.5 426  A 2.5 2.5 0 0 1 187 428.5 L 53 428.5  A 2.5 2.5 0 0 1 50.5 426 L 50.5 392  Z " fill-rule="nonzero" fill="#f9f9f9" stroke="none" fill-opacity="0" />
    <path d="M 50.5 392  A 2.5 2.5 0 0 1 53 389.5 L 187 389.5  A 2.5 2.5 0 0 1 189.5 392 L 189.5 426  A 2.5 2.5 0 0 1 187 428.5 L 53 428.5  A 2.5 2.5 0 0 1 50.5 426 L 50.5 392  Z " stroke-width="1" stroke="#e4e4e4" fill="none" />
  </g>
</svg>